<svg width="562" height="163" viewBox="0 0 562 163" fill="none" xmlns="http://www.w3.org/2000/svg">
<rect x="43" y="1" width="48" height="48" rx="14" fill="black" stroke="#363636" stroke-width="2"/>
<rect x="481" y="1" width="48" height="48" rx="14" fill="black" stroke="#363636" stroke-width="2"/>
<rect x="481" y="114" width="48" height="48" rx="14" fill="black" stroke="#363636" stroke-width="2"/>
<rect x="43" y="114" width="48" height="48" rx="14" fill="black" stroke="#363636" stroke-width="2"/>
<rect x="340" y="1" width="48" height="48" rx="14" fill="black" stroke="#363636" stroke-width="2"/>
<rect x="340" y="114" width="48" height="48" rx="14" fill="black" stroke="#363636" stroke-width="2"/>
<rect x="282" y="1" width="48" height="48" rx="14" fill="black" stroke="#363636" stroke-width="2"/>
<rect x="282" y="114" width="48" height="48" rx="14" fill="black" stroke="#363636" stroke-width="2"/>
<rect y="9" width="562" height="144" rx="20" fill="#1F63A6"/>
<rect x="10" y="20" width="429" height="122" rx="20" fill="#3397FA"/>
<rect x="467" y="20" width="77" height="122" rx="20" fill="#3397FA"/>
<path d="M152.24 110C151.624 110 151.148 109.832 150.812 109.496C150.476 109.104 150.308 108.628 150.308 108.068V53.216C150.308 52.6 150.476 52.124 150.812 51.788C151.148 51.396 151.624 51.2 152.24 51.2H171.308C177.076 51.2 181.724 52.068 185.252 53.804C188.78 55.54 191.356 58.116 192.98 61.532C194.604 64.892 195.444 69.036 195.5 73.964C195.556 76.484 195.584 78.696 195.584 80.6C195.584 82.504 195.556 84.688 195.5 87.152C195.388 92.304 194.52 96.588 192.896 100.004C191.328 103.364 188.808 105.884 185.336 107.564C181.92 109.188 177.384 110 171.728 110H152.24ZM158.54 102.86H171.308C175.172 102.86 178.252 102.328 180.548 101.264C182.844 100.2 184.496 98.492 185.504 96.14C186.568 93.788 187.128 90.68 187.184 86.816C187.296 85.136 187.352 83.68 187.352 82.448C187.352 81.16 187.352 79.9 187.352 78.668C187.352 77.38 187.296 75.924 187.184 74.3C187.072 68.868 185.784 64.864 183.32 62.288C180.856 59.656 176.712 58.34 170.888 58.34H158.54V102.86ZM203.29 110C202.842 110 202.45 109.832 202.114 109.496C201.778 109.16 201.61 108.768 201.61 108.32C201.61 108.04 201.638 107.732 201.694 107.396L222.526 53.048C222.75 52.488 223.058 52.04 223.45 51.704C223.842 51.368 224.43 51.2 225.214 51.2H230.926C231.654 51.2 232.214 51.368 232.606 51.704C233.054 52.04 233.39 52.488 233.614 53.048L254.362 107.396C254.474 107.732 254.53 108.04 254.53 108.32C254.53 108.768 254.362 109.16 254.026 109.496C253.69 109.832 253.298 110 252.85 110H248.566C247.894 110 247.39 109.832 247.054 109.496C246.774 109.16 246.578 108.852 246.466 108.572L241.846 96.644H214.294L209.674 108.572C209.618 108.852 209.422 109.16 209.086 109.496C208.75 109.832 208.246 110 207.574 110H203.29ZM216.73 89.42H239.41L228.07 59.6L216.73 89.42ZM265.443 110C264.827 110 264.351 109.832 264.015 109.496C263.679 109.104 263.511 108.628 263.511 108.068V53.216C263.511 52.6 263.679 52.124 264.015 51.788C264.351 51.396 264.827 51.2 265.443 51.2H299.715C300.331 51.2 300.807 51.396 301.143 51.788C301.479 52.124 301.647 52.6 301.647 53.216V56.576C301.647 57.192 301.479 57.668 301.143 58.004C300.807 58.34 300.331 58.508 299.715 58.508H271.659V78.08H298.035C298.651 78.08 299.127 78.276 299.463 78.668C299.799 79.004 299.967 79.48 299.967 80.096V83.456C299.967 84.016 299.799 84.492 299.463 84.884C299.127 85.22 298.651 85.388 298.035 85.388H271.659V108.068C271.659 108.628 271.463 109.104 271.071 109.496C270.735 109.832 270.259 110 269.643 110H265.443Z" fill="black"/>
</svg>
