<svg width="562" height="163" viewBox="0 0 562 163" fill="none" xmlns="http://www.w3.org/2000/svg">
<rect x="43" y="1" width="48" height="48" rx="14" fill="black" stroke="#363636" stroke-width="2"/>
<rect x="481" y="1" width="48" height="48" rx="14" fill="black" stroke="#363636" stroke-width="2"/>
<rect x="481" y="114" width="48" height="48" rx="14" fill="black" stroke="#363636" stroke-width="2"/>
<rect x="43" y="114" width="48" height="48" rx="14" fill="black" stroke="#363636" stroke-width="2"/>
<rect x="340" y="1" width="48" height="48" rx="14" fill="black" stroke="#363636" stroke-width="2"/>
<rect x="340" y="114" width="48" height="48" rx="14" fill="black" stroke="#363636" stroke-width="2"/>
<rect x="282" y="1" width="48" height="48" rx="14" fill="black" stroke="#363636" stroke-width="2"/>
<rect x="282" y="114" width="48" height="48" rx="14" fill="black" stroke="#363636" stroke-width="2"/>
<rect y="9" width="562" height="144" rx="20" fill="#1F63A6"/>
<rect x="10" y="20" width="429" height="122" rx="20" fill="#3397FA"/>
<rect x="467" y="20" width="77" height="122" rx="20" fill="#3397FA"/>
<path d="M99.208 110.84C94.336 110.84 90.248 110.112 86.944 108.656C83.64 107.144 81.092 105.212 79.3 102.86C77.564 100.452 76.64 97.904 76.528 95.216C76.528 94.768 76.696 94.376 77.032 94.04C77.424 93.648 77.872 93.452 78.376 93.452H82.66C83.332 93.452 83.836 93.62 84.172 93.956C84.508 94.292 84.732 94.684 84.844 95.132C85.124 96.476 85.796 97.82 86.86 99.164C87.98 100.452 89.52 101.544 91.48 102.44C93.496 103.28 96.072 103.7 99.208 103.7C104.024 103.7 107.552 102.86 109.792 101.18C112.088 99.444 113.236 97.148 113.236 94.292C113.236 92.332 112.62 90.764 111.388 89.588C110.212 88.356 108.392 87.264 105.928 86.312C103.464 85.36 100.272 84.324 96.352 83.204C92.264 82.028 88.876 80.74 86.188 79.34C83.5 77.94 81.484 76.204 80.14 74.132C78.852 72.06 78.208 69.428 78.208 66.236C78.208 63.212 79.02 60.524 80.644 58.172C82.268 55.764 84.592 53.86 87.616 52.46C90.696 51.06 94.42 50.36 98.788 50.36C102.26 50.36 105.284 50.836 107.86 51.788C110.492 52.684 112.676 53.916 114.412 55.484C116.148 56.996 117.464 58.648 118.36 60.44C119.256 62.176 119.732 63.884 119.788 65.564C119.788 65.956 119.648 66.348 119.368 66.74C119.088 67.076 118.64 67.244 118.024 67.244H113.572C113.18 67.244 112.76 67.132 112.312 66.908C111.92 66.684 111.612 66.264 111.388 65.648C111.052 63.352 109.764 61.42 107.524 59.852C105.284 58.284 102.372 57.5 98.788 57.5C95.148 57.5 92.18 58.2 89.884 59.6C87.644 61 86.524 63.184 86.524 66.152C86.524 68.056 87.056 69.652 88.12 70.94C89.184 72.172 90.864 73.264 93.16 74.216C95.456 75.168 98.452 76.176 102.148 77.24C106.628 78.472 110.296 79.788 113.152 81.188C116.008 82.532 118.108 84.24 119.452 86.312C120.852 88.328 121.552 90.932 121.552 94.124C121.552 97.652 120.628 100.676 118.78 103.196C116.932 105.66 114.328 107.564 110.968 108.908C107.664 110.196 103.744 110.84 99.208 110.84ZM153.73 110.84C148.578 110.84 144.294 109.888 140.878 107.984C137.518 106.08 134.97 103.42 133.234 100.004C131.498 96.588 130.546 92.612 130.378 88.076C130.322 85.78 130.294 83.316 130.294 80.684C130.294 78.052 130.322 75.532 130.378 73.124C130.546 68.588 131.498 64.612 133.234 61.196C134.97 57.78 137.518 55.12 140.878 53.216C144.294 51.312 148.578 50.36 153.73 50.36C157.594 50.36 160.982 50.892 163.894 51.956C166.806 53.02 169.214 54.448 171.118 56.24C173.078 58.032 174.562 60.048 175.57 62.288C176.578 64.472 177.138 66.74 177.25 69.092C177.306 69.596 177.138 70.016 176.746 70.352C176.41 70.688 175.99 70.856 175.486 70.856H170.866C170.362 70.856 169.914 70.716 169.522 70.436C169.186 70.156 168.934 69.652 168.766 68.924C167.814 64.556 166.022 61.56 163.39 59.936C160.814 58.312 157.566 57.5 153.646 57.5C149.166 57.5 145.61 58.788 142.978 61.364C140.346 63.884 138.918 67.944 138.694 73.544C138.526 78.136 138.526 82.84 138.694 87.656C138.918 93.256 140.346 97.344 142.978 99.92C145.61 102.44 149.166 103.7 153.646 103.7C157.566 103.7 160.814 102.888 163.39 101.264C166.022 99.64 167.814 96.644 168.766 92.276C168.934 91.548 169.186 91.044 169.522 90.764C169.914 90.484 170.362 90.344 170.866 90.344H175.486C175.99 90.344 176.41 90.512 176.746 90.848C177.138 91.184 177.306 91.604 177.25 92.108C177.138 94.46 176.578 96.756 175.57 98.996C174.562 101.18 173.078 103.168 171.118 104.96C169.214 106.752 166.806 108.18 163.894 109.244C160.982 110.308 157.594 110.84 153.73 110.84ZM183.985 110C183.537 110 183.145 109.832 182.809 109.496C182.473 109.16 182.305 108.768 182.305 108.32C182.305 108.04 182.333 107.732 182.389 107.396L203.221 53.048C203.445 52.488 203.753 52.04 204.145 51.704C204.537 51.368 205.125 51.2 205.909 51.2H211.621C212.349 51.2 212.909 51.368 213.301 51.704C213.749 52.04 214.085 52.488 214.309 53.048L235.057 107.396C235.169 107.732 235.225 108.04 235.225 108.32C235.225 108.768 235.057 109.16 234.721 109.496C234.385 109.832 233.993 110 233.545 110H229.261C228.589 110 228.085 109.832 227.749 109.496C227.469 109.16 227.273 108.852 227.161 108.572L222.541 96.644H194.989L190.369 108.572C190.313 108.852 190.117 109.16 189.781 109.496C189.445 109.832 188.941 110 188.269 110H183.985ZM197.425 89.42H220.105L208.765 59.6L197.425 89.42ZM246.138 110C245.522 110 245.046 109.832 244.71 109.496C244.374 109.104 244.206 108.628 244.206 108.068V53.216C244.206 52.6 244.374 52.124 244.71 51.788C245.046 51.396 245.522 51.2 246.138 51.2H250.002C250.674 51.2 251.178 51.368 251.514 51.704C251.85 51.984 252.046 52.208 252.102 52.376L279.99 95.216V53.216C279.99 52.6 280.158 52.124 280.494 51.788C280.83 51.396 281.306 51.2 281.922 51.2H285.954C286.57 51.2 287.046 51.396 287.382 51.788C287.774 52.124 287.97 52.6 287.97 53.216V107.984C287.97 108.544 287.774 109.02 287.382 109.412C287.046 109.804 286.598 110 286.038 110H282.006C281.39 110 280.914 109.832 280.578 109.496C280.298 109.16 280.102 108.936 279.99 108.824L252.186 66.404V108.068C252.186 108.628 251.99 109.104 251.598 109.496C251.262 109.832 250.786 110 250.17 110H246.138ZM304.463 110C303.847 110 303.371 109.832 303.035 109.496C302.699 109.104 302.531 108.628 302.531 108.068V53.132C302.531 52.572 302.699 52.124 303.035 51.788C303.371 51.396 303.847 51.2 304.463 51.2H308.915C309.475 51.2 309.923 51.396 310.259 51.788C310.651 52.124 310.847 52.572 310.847 53.132V108.068C310.847 108.628 310.651 109.104 310.259 109.496C309.923 109.832 309.475 110 308.915 110H304.463ZM321.551 110C321.103 110 320.711 109.832 320.375 109.496C320.039 109.16 319.871 108.768 319.871 108.32C319.871 108.04 319.899 107.732 319.955 107.396L340.787 53.048C341.011 52.488 341.319 52.04 341.711 51.704C342.103 51.368 342.691 51.2 343.475 51.2H349.187C349.915 51.2 350.475 51.368 350.867 51.704C351.315 52.04 351.651 52.488 351.875 53.048L372.623 107.396C372.735 107.732 372.791 108.04 372.791 108.32C372.791 108.768 372.623 109.16 372.287 109.496C371.951 109.832 371.559 110 371.111 110H366.827C366.155 110 365.651 109.832 365.315 109.496C365.035 109.16 364.839 108.852 364.727 108.572L360.107 96.644H332.555L327.935 108.572C327.879 108.852 327.683 109.16 327.347 109.496C327.011 109.832 326.507 110 325.835 110H321.551ZM334.991 89.42H357.671L346.331 59.6L334.991 89.42Z" fill="black"/>
</svg>
