<svg width="562" height="163" viewBox="0 0 562 163" fill="none" xmlns="http://www.w3.org/2000/svg">
<rect x="43" y="1" width="48" height="48" rx="14" fill="black" stroke="#363636" stroke-width="2"/>
<rect x="481" y="1" width="48" height="48" rx="14" fill="black" stroke="#363636" stroke-width="2"/>
<rect x="481" y="114" width="48" height="48" rx="14" fill="black" stroke="#363636" stroke-width="2"/>
<rect x="43" y="114" width="48" height="48" rx="14" fill="black" stroke="#363636" stroke-width="2"/>
<rect x="340" y="1" width="48" height="48" rx="14" fill="black" stroke="#363636" stroke-width="2"/>
<rect x="340" y="114" width="48" height="48" rx="14" fill="black" stroke="#363636" stroke-width="2"/>
<rect x="282" y="1" width="48" height="48" rx="14" fill="black" stroke="#363636" stroke-width="2"/>
<rect x="282" y="114" width="48" height="48" rx="14" fill="black" stroke="#363636" stroke-width="2"/>
<rect y="9" width="562" height="144" rx="20" fill="#1F63A6"/>
<rect x="10" y="20" width="429" height="122" rx="20" fill="#3397FA"/>
<rect x="467" y="20" width="77" height="122" rx="20" fill="#3397FA"/>
<path d="M118.78 110C117.94 110 117.268 109.804 116.764 109.412C116.316 109.02 115.952 108.488 115.672 107.816L96.94 53.804C96.828 53.468 96.772 53.16 96.772 52.88C96.772 52.432 96.94 52.04 97.276 51.704C97.612 51.368 98.004 51.2 98.452 51.2H102.82C103.492 51.2 103.996 51.396 104.332 51.788C104.724 52.124 104.948 52.432 105.004 52.712L121.468 100.34L137.932 52.712C138.044 52.432 138.268 52.124 138.604 51.788C138.94 51.396 139.444 51.2 140.116 51.2H144.484C144.932 51.2 145.324 51.368 145.66 51.704C146.052 52.04 146.248 52.432 146.248 52.88C146.248 53.16 146.192 53.468 146.08 53.804L127.264 107.816C127.04 108.488 126.676 109.02 126.172 109.412C125.724 109.804 125.08 110 124.24 110H118.78ZM175.712 110.84C170.952 110.84 166.864 110.028 163.448 108.404C160.032 106.724 157.4 104.176 155.552 100.76C153.704 97.288 152.668 92.948 152.444 87.74C152.388 85.276 152.36 82.924 152.36 80.684C152.36 78.388 152.388 76.008 152.444 73.544C152.668 68.392 153.732 64.108 155.636 60.692C157.596 57.22 160.284 54.644 163.7 52.964C167.172 51.228 171.176 50.36 175.712 50.36C180.304 50.36 184.308 51.228 187.724 52.964C191.196 54.644 193.912 57.22 195.872 60.692C197.832 64.108 198.896 68.392 199.064 73.544C199.176 76.008 199.232 78.388 199.232 80.684C199.232 82.924 199.176 85.276 199.064 87.74C198.896 92.948 197.86 97.288 195.956 100.76C194.108 104.176 191.476 106.724 188.06 108.404C184.644 110.028 180.528 110.84 175.712 110.84ZM175.712 103.7C180.024 103.7 183.524 102.412 186.212 99.836C188.956 97.26 190.44 93.088 190.664 87.32C190.776 84.8 190.832 82.56 190.832 80.6C190.832 78.584 190.776 76.344 190.664 73.88C190.552 70.016 189.824 66.88 188.48 64.472C187.192 62.064 185.456 60.3 183.272 59.18C181.088 58.06 178.568 57.5 175.712 57.5C172.968 57.5 170.504 58.06 168.32 59.18C166.136 60.3 164.372 62.064 163.028 64.472C161.74 66.88 161.012 70.016 160.844 73.88C160.788 76.344 160.76 78.584 160.76 80.6C160.76 82.56 160.788 84.8 160.844 87.32C161.068 93.088 162.552 97.26 165.296 99.836C168.04 102.412 171.512 103.7 175.712 103.7ZM213.408 110C212.792 110 212.316 109.832 211.98 109.496C211.644 109.104 211.476 108.628 211.476 108.068V53.132C211.476 52.572 211.644 52.124 211.98 51.788C212.316 51.396 212.792 51.2 213.408 51.2H217.86C218.42 51.2 218.868 51.396 219.204 51.788C219.54 52.124 219.708 52.572 219.708 53.132V102.692H247.68C248.296 102.692 248.772 102.888 249.108 103.28C249.444 103.616 249.612 104.092 249.612 104.708V108.068C249.612 108.628 249.444 109.104 249.108 109.496C248.772 109.832 248.296 110 247.68 110H213.408ZM268.323 110C267.483 110 266.811 109.804 266.307 109.412C265.859 109.02 265.495 108.488 265.215 107.816L246.483 53.804C246.371 53.468 246.315 53.16 246.315 52.88C246.315 52.432 246.483 52.04 246.819 51.704C247.155 51.368 247.547 51.2 247.995 51.2H252.363C253.035 51.2 253.539 51.396 253.875 51.788C254.267 52.124 254.491 52.432 254.547 52.712L271.011 100.34L287.475 52.712C287.587 52.432 287.811 52.124 288.147 51.788C288.483 51.396 288.987 51.2 289.659 51.2H294.027C294.475 51.2 294.867 51.368 295.203 51.704C295.595 52.04 295.791 52.432 295.791 52.88C295.791 53.16 295.735 53.468 295.623 53.804L276.807 107.816C276.583 108.488 276.219 109.02 275.715 109.412C275.267 109.804 274.623 110 273.783 110H268.323ZM325.255 110.84C320.495 110.84 316.407 110.028 312.991 108.404C309.575 106.724 306.943 104.176 305.095 100.76C303.247 97.288 302.211 92.948 301.987 87.74C301.931 85.276 301.903 82.924 301.903 80.684C301.903 78.388 301.931 76.008 301.987 73.544C302.211 68.392 303.275 64.108 305.179 60.692C307.139 57.22 309.827 54.644 313.243 52.964C316.715 51.228 320.719 50.36 325.255 50.36C329.847 50.36 333.851 51.228 337.267 52.964C340.739 54.644 343.455 57.22 345.415 60.692C347.375 64.108 348.439 68.392 348.607 73.544C348.719 76.008 348.775 78.388 348.775 80.684C348.775 82.924 348.719 85.276 348.607 87.74C348.439 92.948 347.403 97.288 345.499 100.76C343.651 104.176 341.019 106.724 337.603 108.404C334.187 110.028 330.071 110.84 325.255 110.84ZM325.255 103.7C329.567 103.7 333.067 102.412 335.755 99.836C338.499 97.26 339.983 93.088 340.207 87.32C340.319 84.8 340.375 82.56 340.375 80.6C340.375 78.584 340.319 76.344 340.207 73.88C340.095 70.016 339.367 66.88 338.023 64.472C336.735 62.064 334.999 60.3 332.815 59.18C330.631 58.06 328.111 57.5 325.255 57.5C322.511 57.5 320.047 58.06 317.863 59.18C315.679 60.3 313.915 62.064 312.571 64.472C311.283 66.88 310.555 70.016 310.387 73.88C310.331 76.344 310.303 78.584 310.303 80.6C310.303 82.56 310.331 84.8 310.387 87.32C310.611 93.088 312.095 97.26 314.839 99.836C317.583 102.412 321.055 103.7 325.255 103.7Z" fill="black"/>
</svg>
